<?xml version="1.0" encoding="UTF-8"?>
<!DOCTYPE svg PUBLIC "-//W3C//DTD SVG 1.1//EN" "http://www.w3.org/Graphics/SVG/1.1/DTD/svg11.dtd">
<svg xmlns="http://www.w3.org/2000/svg" version="1.1" width="127px" height="127px" style="shape-rendering:geometricPrecision; text-rendering:geometricPrecision; image-rendering:optimizeQuality; fill-rule:evenodd; clip-rule:evenodd" xmlns:xlink="http://www.w3.org/1999/xlink">
<g>
<style>
path { fill: #000000; }
@media (prefers-color-scheme: dark) {
  path { fill: #ffffff; }
}
<path style="opacity:0.869" d="M 44.5,25.5 C 46.1238,25.3601 47.2904,26.0267 48,27.5C 52.6011,42.6366 57.6011,57.6366 63,72.5C 68.0464,56.6331 73.5464,40.9664 79.5,25.5C 81.4879,26.2888 81.8213,27.4555 80.5,29C 82.6705,30.5862 85.0038,31.9196 87.5,33C 97.5,34.6667 107.5,36.3333 117.5,38C 120.249,39.1227 122.749,40.6227 125,42.5C 122.162,55.8492 117.996,68.8492 112.5,81.5C 109.112,79.1394 105.446,77.3061 101.5,76C 93.8333,75 86.1667,74 78.5,73C 74.3747,72.2963 70.8747,70.463 68,67.5C 66.6366,70.5897 65.47,73.7564 64.5,77C 66.7346,83.8706 69.0679,90.7039 71.5,97.5C 71.1667,98.5 70.5,99.1667 69.5,99.5C 66.8522,94.0624 64.6855,88.3957 63,82.5C 61.3145,88.3957 59.1478,94.0624 56.5,99.5C 55.5,99.1667 54.8333,98.5 54.5,97.5C 56.8333,90.8333 59.1667,84.1667 61.5,77.5C 60.2347,74.2043 59.0681,70.871 58,67.5C 54.877,69.5887 54.7104,68.922 57.5,65.5C 56.7542,64.2638 56.4208,62.9305 56.5,61.5C 51.0726,62.0242 49.5726,64.6909 52,69.5C 52.8928,68.2888 53.7261,68.2888 54.5,69.5C 54.2907,70.086 53.9574,70.586 53.5,71C 44.0077,73.6213 34.341,75.2879 24.5,76C 20.5544,77.3061 16.8878,79.1394 13.5,81.5C 8.00441,68.8492 3.83774,55.8492 1,42.5C 4.13709,40.0144 7.63709,38.1811 11.5,37C 20.5739,36.1262 29.5739,34.7929 38.5,33C 40.9962,31.9196 43.3295,30.5862 45.5,29C 44.6634,27.9887 44.33,26.8221 44.5,25.5 Z M 44.5,31.5 C 46.3023,32.3155 47.3023,33.8155 47.5,36C 46.2247,38.0709 44.3914,39.5709 42,40.5C 39.4015,36.3988 40.2348,33.3988 44.5,31.5 Z M 79.5,31.5 C 85.2337,32.3005 86.7337,35.3005 84,40.5C 82.3333,39.5 80.6667,38.5 79,37.5C 78.8195,35.5116 78.9862,33.5116 79.5,31.5 Z M 29.5,36.5 C 30.3764,36.3691 31.0431,36.7025 31.5,37.5C 32.0736,39.0589 32.7402,40.5589 33.5,42C 28.6967,45.0151 25.6967,43.8484 24.5,38.5C 26.2914,37.8302 27.9581,37.1635 29.5,36.5 Z M 94.5,36.5 C 96.8901,36.9126 99.2235,37.5793 101.5,38.5C 100.303,43.8484 97.3033,45.0151 92.5,42C 93.464,40.2745 94.1307,38.4412 94.5,36.5 Z M 12.5,38.5 C 13.675,38.281 14.675,38.6143 15.5,39.5C 16.0736,41.0589 16.7402,42.5589 17.5,44C 14.8832,44.8215 12.2165,45.3215 9.5,45.5C 9.16667,43.5 8.83333,41.5 8.5,39.5C 10.099,39.7678 11.4324,39.4345 12.5,38.5 Z M 110.5,38.5 C 112.96,38.6985 115.293,39.3652 117.5,40.5C 116.764,42.5405 115.931,44.5405 115,46.5C 112.929,45.4752 110.762,44.6419 108.5,44C 109.464,42.2745 110.131,40.4412 110.5,38.5 Z M 38.5,42.5 C 41.6557,42.5291 43.3223,44.1957 43.5,47.5C 41.5101,48.8732 39.3434,49.8732 37,50.5C 36.3581,48.2381 35.5248,46.0715 34.5,44C 36.0581,43.79 37.3915,43.29 38.5,42.5 Z M 84.5,42.5 C 86.854,42.838 89.1873,43.338 91.5,44C 90.4752,46.0715 89.6419,48.2381 89,50.5C 86.6566,49.8732 84.4899,48.8732 82.5,47.5C 83.1744,45.8045 83.8411,44.1379 84.5,42.5 Z M 18.5,46.5 C 20.9479,45.5269 23.6146,45.1936 26.5,45.5C 26.8333,47.5 27.1667,49.5 27.5,51.5C 22.8287,52.3507 19.8287,50.684 18.5,46.5 Z M 99.5,45.5 C 102.187,45.3359 104.854,45.5026 107.5,46C 106.369,50.6135 103.369,52.4468 98.5,51.5C 98.8333,49.5 99.1667,47.5 99.5,45.5 Z M 48.5,46.5 C 49.5,46.5 50.5,46.5 51.5,46.5C 53.6565,51.0265 52.3232,54.0265 47.5,55.5C 44.5204,52.0177 44.8538,49.0177 48.5,46.5 Z M 74.5,46.5 C 80.4556,47.4125 81.7889,50.4125 78.5,55.5C 73.6768,54.0265 72.3435,51.0265 74.5,46.5 Z M 9.5,47.5 C 10.5783,49.5394 11.5783,51.706 12.5,54C 10.3359,54.9143 8.3359,56.081 6.5,57.5C 5.44298,55.9968 4.77631,54.3302 4.5,52.5C 5.85452,50.4788 7.52119,48.8121 9.5,47.5 Z M 115.5,47.5 C 121.267,49.2213 122.6,52.5546 119.5,57.5C 117.37,56.5328 115.37,55.3662 113.5,54C 114.669,51.9935 115.335,49.8268 115.5,47.5 Z M 34.5,51.5 C 35.3764,51.3691 36.0431,51.7025 36.5,52.5C 39.3114,57.513 37.6447,59.3463 31.5,58C 30.7402,56.5589 30.0736,55.0589 29.5,53.5C 31.2914,52.8302 32.9581,52.1635 34.5,51.5 Z M 89.5,51.5 C 91.8901,51.9126 94.2235,52.5793 96.5,53.5C 95.2234,58.6703 92.2234,59.8369 87.5,57C 88.464,55.2745 89.1307,53.4412 89.5,51.5 Z M 16.5,53.5 C 17.9778,53.238 19.3112,53.5713 20.5,54.5C 21.0736,56.0589 21.7402,57.5589 22.5,59C 16.5382,63.5465 13.5382,62.0465 13.5,54.5C 14.791,54.7373 15.791,54.404 16.5,53.5 Z M 105.5,53.5 C 112.537,53.338 114.037,56.0047 110,61.5C 107.825,60.7454 105.659,59.912 103.5,59C 104.464,57.2745 105.131,55.4412 105.5,53.5 Z M 44.5,57.5 C 45.4959,57.4142 46.3292,57.7476 47,58.5C 47.3095,59.7659 47.8095,60.9326 48.5,62C 43.1768,66.4844 40.5101,65.3178 40.5,58.5C 42.099,58.7678 43.4324,58.4345 44.5,57.5 Z M 79.5,57.5 C 81.4352,58.1495 83.4352,58.4828 85.5,58.5C 85.4323,65.3288 82.7656,66.4954 77.5,62C 78.2666,60.5295 78.9332,59.0295 79.5,57.5 Z M 23.5,60.5 C 26.1667,60.5 28.8333,60.5 31.5,60.5C 31.4208,61.9305 31.7542,63.2638 32.5,64.5C 27.6732,66.7503 24.6732,65.4169 23.5,60.5 Z M 94.5,60.5 C 97.2469,60.1866 99.9135,60.52 102.5,61.5C 100.462,65.1797 97.4623,66.1797 93.5,64.5C 94.2458,63.2638 94.5792,61.9305 94.5,60.5 Z M 69.5,61.5 C 74.9937,62.2886 76.3271,64.9553 73.5,69.5C 68.9402,68.3069 67.6068,65.6403 69.5,61.5 Z M 13.5,63.5 C 14.4959,63.4142 15.3292,63.7476 16,64.5C 16.3095,65.7659 16.8095,66.9326 17.5,68C 15.3359,68.9143 13.3359,70.081 11.5,71.5C 8.34661,67.6482 9.01328,64.9816 13.5,63.5 Z M 110.5,63.5 C 116.609,63.8358 117.942,66.5024 114.5,71.5C 112.37,70.5328 110.37,69.3662 108.5,68C 109.267,66.5295 109.933,65.0295 110.5,63.5 Z M 39.5,65.5 C 40.3764,65.3691 41.0431,65.7025 41.5,66.5C 42.0736,68.0589 42.7402,69.5589 43.5,71C 40.9865,72.2525 38.3198,72.7525 35.5,72.5C 35.1667,70.5 34.8333,68.5 34.5,66.5C 36.4147,66.7845 38.0813,66.4511 39.5,65.5 Z M 84.5,65.5 C 86.7638,66.2186 89.0971,66.552 91.5,66.5C 90.9202,72.5334 87.9202,74.0334 82.5,71C 83.464,69.2745 84.1307,67.4412 84.5,65.5 Z M 22.5,67.5 C 23.675,67.281 24.675,67.6143 25.5,68.5C 26.0736,70.0589 26.7402,71.5589 27.5,73C 25.2381,73.6419 23.0715,74.4752 21,75.5C 17.2041,71.7416 17.7041,69.0749 22.5,67.5 Z M 100.5,67.5 C 107.56,67.3569 109.06,70.0235 105,75.5C 102.929,74.4752 100.762,73.6419 98.5,73C 99.464,71.2745 100.131,69.4412 100.5,67.5 Z"/></g>
</svg>
